<svg xmlns="http://www.w3.org/2000/svg" viewBox="0 0 24 24" id="at"><path fill="#112d55" d="m12.011,21.751c-.616,0-1.238-.058-1.862-.174-3.961-.737-7.159-4.035-7.777-8.021-.47-3.024.449-6.023,2.521-8.229,2.071-2.205,4.984-3.304,8.023-3.035,4.557.416,8.244,4.014,8.769,8.555.21,1.82-.084,3.646-.851,5.279-.462.986-1.496,1.624-2.634,1.624-.414,0-.75-.336-.75-.75s.336-.75.75-.75c.559,0,1.06-.299,1.276-.761.647-1.381.896-2.927.718-4.471-.436-3.777-3.624-6.887-7.415-7.232-2.551-.233-5.04.701-6.793,2.568-1.753,1.866-2.53,4.407-2.132,6.972.522,3.367,3.224,6.153,6.57,6.776,1.86.346,3.707.08,5.341-.768.367-.192.819-.048,1.011.319s.049.82-.319,1.011c-1.383.72-2.894,1.086-4.445,1.086Z"></path><path fill="#112d55" d="m18.2,17.75c-.2,0-.391-.08-.53-.22-.07-.07-.13-.15-.16-.24-.04-.09-.06-.19-.06-.29,0-.2.08-.391.22-.53.07-.07.149-.12.24-.16.18-.08.39-.08.58,0,.09.04.17.09.239.16.141.14.221.33.221.53,0,.1-.021.2-.061.29s-.09.17-.16.24c-.14.14-.33.22-.529.22Z"></path><path fill="#549bff" d="m18.199,16.25c-.799,0-1.449-.65-1.449-1.449v-6.801c0-.414-.336-.75-.75-.75s-.75.336-.75.75v.554c-.851-.803-1.99-1.304-3.25-1.304-2.619,0-4.75,2.131-4.75,4.75s2.131,4.75,4.75,4.75c1.288,0,2.454-.519,3.31-1.354.276,1.342,1.466,2.354,2.889,2.354.414,0,.75-.336.75-.75s-.336-.75-.75-.75Zm-6.199-1c-1.792,0-3.25-1.458-3.25-3.25s1.458-3.25,3.25-3.25,3.25,1.458,3.25,3.25-1.458,3.25-3.25,3.25Z"></path></svg>