<svg xmlns="http://www.w3.org/2000/svg" viewBox="0 0 24 24" id="online-support"><path fill="#549bff" d="m17.504,15.804c-.408-1.506-1.314-2.783-2.492-3.591.458-.622.738-1.383.738-2.213,0-2.068-1.683-3.75-3.75-3.75s-3.75,1.682-3.75,3.75c0,.83.28,1.591.738,2.213-1.179.808-2.084,2.085-2.492,3.591-.108.4.128.812.527.92.065.018.132.026.196.026.331,0,.633-.22.724-.554.353-1.301,1.169-2.375,2.215-2.95.546.311,1.169.504,1.842.504s1.295-.192,1.842-.504c1.045.575,1.862,1.649,2.215,2.95.091.334.393.554.724.554.064,0,.131-.008.196-.026.399-.108.636-.52.527-.92Zm-7.754-5.804c0-1.241,1.01-2.25,2.25-2.25s2.25,1.009,2.25,2.25-1.01,2.25-2.25,2.25-2.25-1.009-2.25-2.25Z"></path><path fill="#112d55" d="m20.75,15.301V5.846c0-1.432-1.233-2.596-2.75-2.596H6c-1.517,0-2.75,1.165-2.75,2.596v9.454c-.566.119-1,.599-1,1.199v2.035c0,1.222.994,2.215,2.216,2.215h15.049c1.232,0,2.235-1.003,2.235-2.235v-2.015c0-.601-.434-1.08-1-1.199ZM6,4.75h12c.689,0,1.25.492,1.25,1.096v9.404H4.75V5.846c0-.604.561-1.096,1.25-1.096Zm14.25,13.765c0,.405-.33.735-.735.735H4.466c-.395,0-.716-.321-.716-.715v-1.785h16.5v1.765Z"></path></svg>